<svg width="279" height="279" viewBox="0 0 279 279" fill="none" xmlns="http://www.w3.org/2000/svg">
<rect x="9" y="9" width="261" height="261" rx="44.9032" fill="#0E091B"/>
<path d="M159.855 215.537V216.293V243.949V244.704H160.611H178.519C182.76 244.704 187 244.629 191.241 244.477H191.242C195.405 244.323 199.274 243.474 202.84 241.925C206.506 240.486 209.421 237.701 211.601 233.652L211.604 233.648L211.606 233.643C213.653 229.706 214.638 224.047 214.638 216.746V179.342C214.638 174.885 215.307 170.738 216.637 166.895L216.638 166.891L216.64 166.887C217.966 162.907 219.945 159.695 222.562 157.223C225.129 154.799 228.338 153.576 232.244 153.576H233V152.82V126.524V125.796L232.272 125.769C228.348 125.624 225.124 124.395 222.552 122.112C219.935 119.637 217.961 116.499 216.638 112.678C215.306 108.68 214.638 104.456 214.638 100.002V64.1849C214.638 56.8839 213.653 51.2247 211.606 47.288C209.577 43.386 206.818 40.6071 203.314 39.0147L203.309 39.0121L203.303 39.0096C199.734 37.4581 195.791 36.6097 191.481 36.4543C187.235 36.1514 182.915 36 178.519 36H160.611H159.855V36.7556V64.4116V65.1672H160.611H168.998C172.105 65.1672 174.461 65.6117 176.126 66.4398C177.495 67.1914 178.629 68.9595 179.367 72.0509C179.955 75.1515 180.257 80.1476 180.257 87.0804V109.296C180.257 115.112 181.175 120.201 183.034 124.545C184.72 128.681 186.724 132.084 189.06 134.731C191.042 136.977 192.926 138.785 194.713 140.143C193.182 141.378 191.453 143.095 189.528 145.277C187.051 147.758 184.897 150.843 183.059 154.52C181.185 158.113 180.257 162.162 180.257 166.648V193.85C180.257 200.631 179.955 205.553 179.367 208.653C178.629 211.744 177.496 213.512 176.126 214.264C174.461 215.092 172.105 215.537 168.998 215.537H160.611H159.855Z" fill="url(#paint0_linear_34_9)"/>
<path d="M118.145 215.537V216.293V243.949V244.704H117.389H99.4807C95.2401 244.704 90.9996 244.629 86.7594 244.477H86.7582C82.5946 244.323 78.7258 243.474 75.1598 241.925C71.4937 240.486 68.5791 237.701 66.399 233.652L66.3964 233.648L66.3939 233.643C64.3468 229.706 63.3617 224.047 63.3617 216.746V179.342C63.3617 174.885 62.6933 170.738 61.3631 166.895L61.3617 166.891L61.3603 166.887C60.0337 162.907 58.0547 159.695 55.4378 157.223C52.871 154.799 49.6621 153.576 45.7556 153.576H45V152.82V126.524V125.796L45.7277 125.769C49.6519 125.624 52.8757 124.395 55.4477 122.112C58.0646 119.637 60.0393 116.499 61.3624 112.678C62.6941 108.68 63.3617 104.456 63.3617 100.002V64.1849C63.3617 56.8839 64.3468 51.2247 66.3939 47.288C68.423 43.386 71.1825 40.6071 74.6857 39.0147L74.6914 39.0121L74.6971 39.0096C78.2658 37.4581 82.2094 36.6097 86.5192 36.4543C90.7645 36.1514 95.0853 36 99.4807 36H117.389H118.145V36.7556V64.4116V65.1672H117.389H109.002C105.895 65.1672 103.539 65.6117 101.874 66.4398C100.505 67.1914 99.3713 68.9595 98.633 72.0509C98.0446 75.1515 97.7428 80.1476 97.7428 87.0804V109.296C97.7428 115.112 96.8253 120.201 94.9656 124.545C93.28 128.681 91.2756 132.084 88.9397 134.731C86.9583 136.977 85.0744 138.785 83.2874 140.143C84.8176 141.378 86.5466 143.095 88.4723 145.277C90.9489 147.758 93.103 150.843 94.9415 154.52C96.8145 158.113 97.7428 162.162 97.7428 166.648V193.85C97.7428 200.631 98.0446 205.553 98.633 208.653C99.3713 211.744 100.504 213.512 101.874 214.264C103.539 215.092 105.895 215.537 109.002 215.537H117.389H118.145Z" fill="url(#paint1_linear_34_9)"/>
<defs>
<linearGradient id="paint0_linear_34_9" x1="196.428" y1="36" x2="196.428" y2="244.704" gradientUnits="userSpaceOnUse">
<stop stop-color="#00FF80"/>
<stop offset="1" stop-color="#00FF80" stop-opacity="0.3"/>
</linearGradient>
<linearGradient id="paint1_linear_34_9" x1="81.5723" y1="36" x2="81.5723" y2="244.704" gradientUnits="userSpaceOnUse">
<stop stop-color="#00FF80"/>
<stop offset="1" stop-color="#00FF80" stop-opacity="0.3"/>
</linearGradient>
</defs>
</svg>
