<svg width="208" height="208" viewBox="0 0 208 208" fill="none" xmlns="http://www.w3.org/2000/svg">
<path d="M66.0766 123.15C65.2559 126.954 64.5942 131.554 64.238 136.242L64.2189 136.599C64.2189 136.758 64.1871 136.917 64.1807 137.076C61.935 134.251 59.2311 131.91 56.1583 130.122L56.0247 130.052C60.0582 135.155 62.8893 141.383 63.9835 148.19L64.0153 148.419C63.5445 148.464 63.0038 148.489 62.4503 148.489C59.7337 148.489 57.1572 147.891 54.8414 146.822L54.9559 146.867C57.0363 148.998 59.6319 150.608 62.5393 151.505L62.6666 151.537C58.5059 152.37 54.8796 154.247 51.9467 156.881L51.9658 156.861C54.9559 155.328 58.4868 154.425 62.2276 154.425C63.0801 154.425 63.9262 154.469 64.7533 154.565L64.6515 154.558C59.8037 168.389 54.8732 183.613 50 199.792C51.3805 199.385 52.4493 198.341 52.882 197.005L52.8883 196.973C53.7599 194.047 59.5683 174.821 68.615 149.552L69.6074 146.784C70.5617 144.144 71.5606 141.44 72.5785 138.673L73.291 136.79V136.758L66.1529 122.679C66.1275 122.838 66.0766 122.997 66.0575 123.156L66.0766 123.15ZM77.0191 126.929C78.2724 123.703 79.5575 120.49 80.8617 117.189C82.1023 114.058 83.4065 110.909 84.7106 107.728C88.7441 98.0879 92.9833 88.5366 97.4281 79.0743L99.0568 75.7024C100.011 73.7684 100.94 71.8471 101.92 69.9449C101.958 69.824 102.009 69.7159 102.079 69.6268L94.9661 55.6115L94.6162 56.165C92.9684 58.8688 91.327 61.6235 89.7111 64.4482C86.6532 69.7668 83.7585 75.1723 81.0271 80.6647L80.2828 82.198C76.9046 88.878 73.52 96.9958 70.689 105.362L70.2818 106.736C68.8695 110.897 67.438 116.222 66.312 121.661L66.1466 122.615L73.2719 136.688C74.2008 134.169 75.1805 131.617 76.1666 129.034L77.0191 126.929ZM106.672 60.7837C109.938 54.6848 113.399 48.6961 117.055 42.8177L117.373 42.3087C119.154 39.5095 120.948 36.7993 122.755 34.1973L117.309 23.9164L116.062 25.4433C114.497 27.39 112.856 29.4958 111.189 31.7225C105.493 39.3483 100.151 47.218 95.1633 55.3316L94.9852 55.6306L102.085 69.6459C103.593 66.6431 105.107 63.6657 106.659 60.7583L106.672 60.7837ZM131.191 9.88837C125.885 13.9346 121.304 18.5533 117.424 23.7255L117.296 23.9037L122.749 34.1909C126.528 28.7387 130.345 23.98 134.461 19.4949L134.372 19.5967L134.83 19.1068C134.671 19.2595 134.524 19.4185 134.385 19.5903L134.378 19.603C130.574 23.9927 126.967 28.8278 123.741 33.9237L123.448 34.4136C131.503 33.8283 138.768 32.8994 145.906 31.6016L144.64 31.7925C145.168 29.9793 145.473 27.899 145.473 25.7486C145.473 21.7088 144.405 17.9235 142.534 14.6534L142.591 14.7616C142.591 14.7616 137.343 6.25571 131.178 9.91382L131.191 9.88837ZM74.3471 139.78C73.4182 142.346 72.4767 144.975 71.5224 147.668L71.4842 147.789C71.357 148.152 71.2297 148.534 71.0898 148.915C70.4536 150.722 69.9001 152.351 68.6277 156.073C70.9816 157.606 72.8266 159.75 73.959 162.288L73.9972 162.377C73.8381 159.254 72.4449 156.48 70.3009 154.514L70.2945 154.508C71.4778 154.711 72.8393 154.826 74.2262 154.826C82.3249 154.826 89.5139 150.926 94.0181 144.901L94.0627 144.837C94.4062 144.265 94.7816 143.571 95.1124 142.853L95.1697 142.706C93.3438 144.952 90.5763 146.377 87.4781 146.377C86.8228 146.377 86.1866 146.313 85.5695 146.193L85.6331 146.205C91.5179 143.991 96.3084 140.015 99.5021 134.926L99.5721 134.811C100.316 133.596 101.048 132.266 101.799 130.809C97.6762 135.333 91.766 138.157 85.1942 138.157C83.5719 138.157 81.9941 137.986 80.4736 137.661L80.6199 137.687L74.8942 138.304C74.7076 138.787 74.5294 139.273 74.3598 139.761L74.3471 139.78ZM103.16 70.8547L102.549 72.127C101.932 73.3994 101.303 74.6718 100.673 76.0078C99.992 77.4392 99.3049 78.9025 98.6051 80.3975L97.5554 82.6815C93.5643 91.3337 89.7832 100.079 86.2121 108.918C84.9142 112.074 83.6079 115.333 82.2931 118.696C81.1034 121.718 79.9328 124.778 78.7177 127.953L78.5587 128.43C77.369 131.579 76.173 134.805 74.9578 138.132L74.8815 138.348L80.6072 137.712C80.4863 137.706 80.3718 137.687 80.2637 137.661H80.2764C88.9859 135.861 96.4738 131.49 102.117 125.389L102.142 125.364C104.929 122.323 107.404 118.919 109.471 115.255L109.611 114.981C111.176 112.258 112.786 108.969 114.192 105.578L114.414 104.98C115.75 101.761 117.023 98.2809 118.232 94.5019C116.686 95.3099 114.898 95.9588 113.015 96.3469L112.881 96.3723C112.277 96.525 111.539 96.6522 110.788 96.7286L110.712 96.735C116.724 94.2284 121.438 89.6223 124.027 83.8521L124.091 83.693C121.896 85.2326 119.32 86.4032 116.546 87.0648L116.393 87.0966C115.916 87.1921 115.471 87.2684 115.012 87.332L114.669 87.3829H114.688C116.87 86.4859 118.747 85.4107 120.465 84.132L120.395 84.1829C122.411 82.656 124.091 80.8111 125.408 78.718L125.459 78.6353L125.961 77.8082L126.572 76.5867C127.501 74.7927 128.487 72.566 129.346 70.2757L129.492 69.8304L129.734 69.1306C130.109 68.1063 130.447 66.8721 130.688 65.5997L130.714 65.447C130.497 65.6252 130.249 65.7969 129.995 65.9496L129.969 65.9623C127.679 67.1902 125.026 68.1254 122.221 68.6407L122.055 68.6662L122.049 68.6598H121.915L121.12 68.7934L121.254 68.7298L103.249 70.7147L103.147 70.8865L103.16 70.8547ZM123.461 34.4136C121.839 36.8756 120.089 39.6622 118.213 42.8431L117.894 43.333C114.366 49.3005 111.013 55.3697 107.836 61.5408C106.348 64.4037 104.819 67.4404 103.249 70.6511L121.273 68.6662C125.338 67.0439 128.691 64.3655 131.102 60.9746L131.146 60.9046C131.77 60.0055 132.378 59.1 132.972 58.1881C134.798 55.2998 136.63 52.1252 138.246 48.9633C139.811 45.8968 141.185 42.8686 142.261 40.1393C142.922 38.3898 143.45 36.7866 143.832 35.3679C144.163 34.1146 144.417 32.9249 144.627 31.7925C138.749 32.8994 131.483 33.8283 124.104 34.3754L123.417 34.4136H123.461ZM157.307 26.4675L155.913 29.2731L154.545 26.4675H153.852V30.4883H154.386V27.2819L155.754 30.062H156.111L157.478 27.2819V30.4946H158V26.4739L157.307 26.4675ZM150.149 26.4675V26.9892H151.39V30.4883H151.963V26.9892H153.203V26.4675H150.149Z" fill="url(#paint0_linear_30_166)"/>
<defs>
<linearGradient id="paint0_linear_30_166" x1="104" y1="9" x2="104" y2="199.792" gradientUnits="userSpaceOnUse">
<stop stop-color="#00FF80"/>
<stop offset="1" stop-color="#00FF80" stop-opacity="0.3"/>
</linearGradient>
</defs>
</svg>
