<svg width="449" height="449" viewBox="0 0 449 449" fill="none" xmlns="http://www.w3.org/2000/svg">
<path fill-rule="evenodd" clip-rule="evenodd" d="M361.471 111.369C366.062 105.779 368.001 100.444 368.001 95.5C368.001 89.673 365.308 83.3034 358.755 76.6126C352.157 69.877 342.119 63.353 328.931 57.658C302.587 46.2824 265.496 39 224.001 39C182.505 39 145.414 46.2824 119.07 57.658C105.882 63.353 95.8441 69.877 89.2466 76.6126C82.693 83.3034 80.0005 89.673 80.0005 95.5C80.0005 101.327 82.693 107.697 89.2466 114.387C91.3045 116.488 93.6973 118.569 96.4159 120.61L120.805 134.079C125.812 136.17 131.189 138.116 136.895 139.896L166.356 147.028C171.642 147.984 177.094 148.813 182.693 149.507L222.977 151.999C222.991 151.999 223.006 151.999 223.021 151.999L268.501 149L311.015 139.924C312.184 139.56 313.338 139.189 314.479 138.811L347.766 123.308C349.005 122.482 350.191 121.649 351.32 120.808L361.471 111.369ZM357.741 128.492C361.7 125.507 365.137 122.376 368.001 119.123V185.826C367.647 186.233 367.281 186.645 366.903 187.063C351.023 204.599 313.222 231.088 224.001 237C133.188 235.832 95.9219 204.232 80.6321 185.459C80.4173 185.195 80.2068 184.934 80.0005 184.675V119.78L86.5059 126.147L87.4769 127.097L88.6663 127.754L90.9893 129.037C97.9965 134.208 106.575 138.934 116.441 143.092L122.166 146.254L123.342 146.903L124.647 147.219L134.231 149.539C143.528 152.424 153.599 154.873 164.285 156.816L172.147 158.719L173.004 158.927L173.883 158.981L181.774 159.469C194.78 161.067 208.487 161.945 222.651 161.997L223.021 162.02L223.339 161.999C223.559 162 223.78 162 224.001 162C257.399 162 288.314 157.409 313.546 149.609L315.088 149.28L316.196 149.043L317.223 148.565L318.181 148.119C331.615 143.628 343.283 138.2 352.658 132.061L353.723 131.565L355.154 130.898L356.31 129.823L357.741 128.492ZM70.0005 177.668C69.9997 178.222 70 178.818 70.0003 179.458L70.0005 180.5C70.0005 180.509 70.0005 180.518 70.0005 180.526L70.0005 263.43L70.0005 344V354H70.2397C70.4922 355.985 70.9437 357.956 71.5856 359.91C82.3337 392.615 146.478 420.259 224.002 420.259C299.837 420.259 362.869 393.806 375.64 362.039C376.704 359.392 377.419 356.708 377.764 354H378.001V350.515C378.001 350.429 378.002 350.344 378.002 350.259C378.002 347.195 378.085 344.959 378.142 343.44C378.206 341.723 378.236 340.923 378.072 340.881C378.051 340.876 378.028 340.883 378.001 340.901V284V265.559C378.001 265.499 378.001 265.439 378.001 265.379C378.001 262.316 378.085 260.08 378.141 258.561C378.205 256.844 378.235 256.044 378.071 256.002C378.051 255.997 378.027 256.003 378.001 256.021V180.5C378.001 177.436 378.084 175.2 378.141 173.682C378.205 171.964 378.235 171.164 378.071 171.122C378.05 171.117 378.027 171.124 378.001 171.141V109.655V96L377.996 96.004C377.999 95.8362 378.001 95.6682 378.001 95.5C378.001 58.7731 309.052 29 224.001 29C138.949 29 70.0005 58.7731 70.0005 95.5C70.0005 95.6682 70.002 95.8363 70.0049 96.0042L70.0005 96V109.992V177.668ZM368.001 204.581C345.937 230.594 289.786 250.5 224.001 250.5C158.215 250.5 102.064 230.594 80.0005 204.581V269.554C80.207 269.813 80.4177 270.074 80.6327 270.338C95.9225 289.112 133.189 320.711 224.001 321.879C313.223 315.967 351.023 289.478 366.903 271.943C367.281 271.525 367.647 271.113 368.001 270.706V204.581ZM317.72 320.346C341.328 311.875 359.533 300.433 369.501 287.615V298.329V344V353.807C368.708 354.776 367.844 355.783 366.904 356.822C351.024 374.358 313.224 400.847 224.002 406.759C133.189 405.591 95.923 373.991 80.6332 355.218C80.2975 354.805 79.9724 354.399 79.6575 354H80.0005H80.5005V344V300.692V290.041C102.903 315.769 158.707 335.379 224.001 335.379C255.916 335.379 285.563 330.694 310.151 322.9L314.501 322L317.72 320.346Z" fill="url(#paint0_linear_22_56)"/>
<defs>
<linearGradient id="paint0_linear_22_56" x1="224.097" y1="29" x2="224.097" y2="420.259" gradientUnits="userSpaceOnUse">
<stop stop-color="#00FF80"/>
<stop offset="1" stop-color="#00FF80" stop-opacity="0.3"/>
</linearGradient>
</defs>
</svg>
