<svg width="208" height="208" viewBox="0 0 208 208" fill="none" xmlns="http://www.w3.org/2000/svg">
<path fill-rule="evenodd" clip-rule="evenodd" d="M42.3881 8C23.3961 8 8 23.3961 8 42.3881V165.612C8 184.604 23.3961 200 42.3881 200H165.612C184.604 200 200 184.604 200 165.612V42.3881C200 23.3961 184.604 8 165.612 8H42.3881ZM83.5104 157.612C88.9552 157.994 94.4 158.185 99.8448 158.185C114.842 158.185 126.113 155.558 133.66 150.304C141.301 145.051 145.122 137.218 145.122 126.806C145.122 121.648 143.976 117.015 141.684 112.907C139.391 108.8 135.093 105.552 128.788 103.164C136.43 98.5791 140.251 92.3224 140.251 84.394C140.251 79.1403 139.152 74.7462 136.955 71.2119C134.854 67.5821 131.893 64.6686 128.072 62.4716C124.251 60.2746 119.666 58.7462 114.316 57.8865C109.063 56.9313 103.284 56.4537 96.9791 56.4537C92.2985 56.4537 87.2358 56.6925 81.791 57.1701C76.3463 57.5522 71.3313 58.1731 66.7463 59.0328V155.319C72.5731 156.561 78.1612 157.325 83.5104 157.612ZM88.5254 139.272V113.624H102.567C108.967 113.624 113.887 114.627 117.325 116.633C120.764 118.543 122.484 121.791 122.484 126.376C122.484 131.534 120.43 135.069 116.322 136.979C112.215 138.89 106.818 139.845 100.131 139.845C97.8388 139.845 95.7373 139.797 93.8269 139.701C91.9164 139.606 90.1492 139.463 88.5254 139.272ZM99.4149 96.5731H88.5254V74.9373C90.2448 74.7463 92.203 74.6507 94.4 74.6507C96.597 74.5552 98.6507 74.5074 100.561 74.5074C106.484 74.5074 110.973 75.3194 114.03 76.9433C117.087 78.5671 118.615 81.3851 118.615 85.397C118.615 89.3134 117.134 92.1791 114.173 93.994C111.212 95.7134 106.293 96.5731 99.4149 96.5731Z" fill="url(#paint0_linear_24_121)"/>
<defs>
<linearGradient id="paint0_linear_24_121" x1="104" y1="8" x2="104" y2="200" gradientUnits="userSpaceOnUse">
<stop stop-color="#00FF80"/>
<stop offset="1" stop-color="#00FF80" stop-opacity="0.3"/>
</linearGradient>
</defs>
</svg>
