<svg width="208" height="208" viewBox="0 0 208 208" fill="none" xmlns="http://www.w3.org/2000/svg">
<path d="M84.7576 41V59.9394H46.8788V78.8788H27.9394V97.8182H13.2614C11.4266 97.8182 9.91738 99.0907 9.59186 100.896C9.56227 101.029 9 104.195 9 108.235C9 110.883 9.25154 113.769 9.71023 116.639C14.0456 115.603 21.9912 114.05 20.6004 108.945C28.0726 117.601 46.0058 114.982 50.5483 110.721C55.6235 118.074 85.1867 115.263 87.2434 109.537C93.6058 116.994 113.329 116.994 119.677 109.537C121.734 115.263 151.179 118.074 156.254 110.721C157.867 112.23 161.225 113.488 165.132 114.153C166.449 111.653 167.662 109.137 168.801 106.459C192.86 106.163 198.054 88.8664 198.276 88.1117C198.69 86.6617 198.128 85.1673 196.973 84.2055C196.574 83.8652 187.696 76.6593 173.299 79.1155C169.26 65.9615 158.858 59.969 158.384 59.7027C157.023 58.9332 155.336 59.0516 154.123 60.0578C153.738 60.3685 144.787 67.959 146.192 83.4953C146.547 87.4015 147.568 90.8491 149.152 93.9119C146.044 95.6431 140.703 97.8182 132.106 97.8182H130.212V78.8788H111.273V41H84.7576ZM165.132 114.153C164.673 115.041 164.081 115.899 163.593 116.758H197.802C193.689 115.722 184.855 114.331 186.32 108.945C181.482 114.538 172.293 115.367 165.132 114.153ZM163.593 116.758H9.71023C10.6276 122.321 12.5215 128.151 15.392 133.803C35.959 138.641 57.547 131.273 57.7689 131.199C59.7517 130.503 61.8232 131.598 62.5038 133.566C63.1992 135.534 62.2227 137.739 60.2547 138.42C59.5297 138.671 46.5237 143.036 30.5436 143.036C27.3771 143.036 24.0479 142.858 20.7187 142.444C30.6619 155.628 47.515 166 73.3939 166C114.321 166 145.793 148.614 163.593 116.758ZM9.71023 116.758C9.69543 116.698 9.72502 116.698 9.71023 116.639C9.45869 116.698 9.22195 116.698 9 116.758H9.71023ZM92.3333 48.5758H103.697V59.9394H92.3333V48.5758ZM54.4545 67.5152H65.8182V78.8788H54.4545V67.5152ZM73.3939 67.5152H84.7576V78.8788H73.3939V67.5152ZM92.3333 67.5152H103.697V78.8788H92.3333V67.5152ZM35.5152 86.4545H46.8788V97.8182H35.5152V86.4545ZM54.4545 86.4545H65.8182V97.8182H54.4545V86.4545ZM73.3939 86.4545H84.7576V97.8182H73.3939V86.4545ZM92.3333 86.4545H103.697V97.8182H92.3333V86.4545ZM111.273 86.4545H122.636V97.8182H111.273V86.4545ZM69.6061 124.333C70.0943 124.333 70.5974 124.407 71.0265 124.57C70.5678 124.836 70.1979 125.295 70.1979 125.872C70.1979 126.73 70.8786 127.529 71.7367 127.529C72.3138 127.529 72.8909 127.174 73.1572 126.701C73.3495 127.145 73.3939 127.603 73.3939 128.121C73.3939 130.208 71.6924 131.909 69.6061 131.909C67.5198 131.909 65.8182 130.208 65.8182 128.121C65.8182 126.035 67.5198 124.333 69.6061 124.333Z" fill="url(#paint0_linear_33_5)"/>
<defs>
<linearGradient id="paint0_linear_33_5" x1="103.706" y1="41" x2="103.706" y2="166" gradientUnits="userSpaceOnUse">
<stop stop-color="#00FF80"/>
<stop offset="1" stop-color="#00FF80" stop-opacity="0.3"/>
</linearGradient>
</defs>
</svg>
