<svg width="208" height="208" viewBox="0 0 208 208" fill="none" xmlns="http://www.w3.org/2000/svg">
<path d="M122.085 8.29463L29.2957 101.084C27.5681 102.812 27.5681 105.608 29.2957 107.332L53.9777 132.014C55.7053 133.741 58.5023 133.741 60.2255 132.014L177.697 14.5424C180.48 11.7588 178.51 7 174.573 7H125.209C124.038 7 122.916 7.46395 122.085 8.29463ZM177.697 102.913L101.287 179.323L73.4811 151.517C71.7535 149.789 71.7535 146.992 73.4811 145.269L122.085 96.6654C122.916 95.8347 124.038 95.3707 125.209 95.3707H174.573C178.51 95.3707 180.48 100.13 177.697 102.913ZM177.697 193.873L145.472 161.649L101.287 179.323L122.085 200.121C122.916 200.952 124.038 201.416 125.209 201.416H174.573C178.51 201.416 180.48 196.657 177.697 193.873Z" fill="url(#paint0_linear_33_7)"/>
<defs>
<linearGradient id="paint0_linear_33_7" x1="103.5" y1="7" x2="103.5" y2="201.416" gradientUnits="userSpaceOnUse">
<stop stop-color="#00FF80"/>
<stop offset="1" stop-color="#00FF80" stop-opacity="0.3"/>
</linearGradient>
</defs>
</svg>
