<svg width="208" height="208" viewBox="0 0 208 208" fill="none" xmlns="http://www.w3.org/2000/svg">
<path d="M190.224 92.4859L115.514 17.7756C112.346 14.5919 108.173 13 104 13C99.8271 13 95.6542 14.5919 92.4859 17.7756L77.7108 32.5508L95.9942 50.8342C102.068 47.2641 109.981 48.0369 115.19 53.2452C120.398 58.4536 121.155 66.3667 117.585 72.4251L135.559 90.3995C141.633 86.8293 149.546 87.6021 154.755 92.8105C160.937 98.9925 160.937 109.007 154.755 115.19C148.573 121.372 138.558 121.372 132.376 115.19C127.167 109.981 126.395 102.068 129.965 95.9942L111.99 78.0199C110.708 78.7772 109.363 79.3336 107.957 79.689V128.296C114.772 130.057 119.826 136.193 119.826 143.565C119.826 152.313 112.748 159.391 104 159.391C95.2524 159.391 88.1739 152.313 88.1739 143.565C88.1739 136.193 93.2278 130.057 100.043 128.296V79.689C97.4006 79.009 94.8815 77.6953 92.8105 75.6243C87.6021 70.4159 86.8448 62.5029 90.4149 56.4445L72.116 38.1456L17.7756 92.4859C11.4081 98.838 11.4081 109.162 17.7756 115.514L92.4859 190.224C95.6542 193.408 99.8271 195 104 195C108.173 195 112.346 193.408 115.514 190.224L190.224 115.514C196.592 109.162 196.592 98.838 190.224 92.4859Z" fill="url(#paint0_linear_28_157)"/>
<defs>
<linearGradient id="paint0_linear_28_157" x1="104" y1="13" x2="104" y2="195" gradientUnits="userSpaceOnUse">
<stop stop-color="#00FF80"/>
<stop offset="1" stop-color="#00FF80" stop-opacity="0.3"/>
</linearGradient>
</defs>
</svg>
