<svg width="208" height="208" viewBox="0 0 208 208" fill="none" xmlns="http://www.w3.org/2000/svg">
<g clip-path="url(#clip0_27_141)">
<path d="M129.919 48.0022C127.965 47.9534 126.256 48.7023 125.377 50.8676C123.879 54.4982 127.607 58.0473 128.942 59.9033C129.87 61.1895 131.075 62.6385 131.743 64.0875C132.182 65.048 132.247 66.0086 132.622 67.018C133.55 69.5089 135.031 72.3417 136.22 74.6536C136.822 75.8258 137.49 77.0468 138.255 78.0888C138.727 78.7237 139.525 79.0168 139.655 79.9936C138.873 81.1007 138.825 82.8101 138.385 84.2103C136.399 90.4783 137.148 98.2767 140.029 102.9C140.925 104.333 143.025 107.378 145.89 106.222C148.398 105.196 147.844 102.021 148.56 99.2047C148.723 98.586 148.626 98.1139 148.951 97.6906V97.8208C149.7 99.3512 150.465 100.882 151.23 102.396C152.94 105.131 155.952 107.98 158.492 109.917C159.81 110.91 160.852 112.636 162.562 113.222V113.092H162.431C162.106 112.571 161.585 112.359 161.162 111.952C160.168 110.976 159.061 109.755 158.247 108.631C155.919 105.489 153.868 102.038 152.012 98.4558C151.116 96.7463 150.335 94.8578 149.586 93.1157C149.293 92.432 149.293 91.4226 148.691 91.0644C147.86 92.3506 146.656 93.3762 146.021 94.8903C145.011 97.2999 144.865 100.247 144.49 103.291C144.262 103.373 144.36 103.307 144.246 103.421C142.471 102.982 141.836 101.158 141.185 99.5954C139.525 95.6392 139.199 89.2572 140.681 84.715C141.055 83.5265 142.764 79.8145 142.081 78.7237C141.755 77.6329 140.648 77.0142 140.046 76.1839C139.28 75.1583 138.532 73.807 138.011 72.6185C136.643 69.5252 135.357 65.9434 133.908 62.8176C133.224 61.3198 132.068 59.8219 131.108 58.4869C130.049 57.0217 128.877 55.9472 128.047 54.1563C127.77 53.5376 127.363 52.5282 127.803 51.877C127.933 51.4374 128.128 51.2583 128.568 51.1118C129.3 50.542 131.352 51.2909 132.133 51.6165C134.168 52.4631 135.878 53.2771 137.604 54.4168C138.434 54.9703 139.264 56.0286 140.274 56.3379H141.413C143.22 56.7449 145.223 56.4519 146.883 56.9728C149.847 57.8683 152.5 59.2684 154.894 60.7825C162.236 65.4062 168.244 71.9998 172.33 79.8633C172.998 81.1332 173.291 82.3543 173.877 83.6893C175.033 86.3919 176.514 89.1921 177.686 91.8296C178.842 94.4833 179.982 97.1371 181.626 99.3349C182.489 100.491 185.843 101.126 187.357 101.761C188.415 102.217 190.174 102.689 191.167 103.291C193.104 104.447 194.96 105.831 196.767 107.117C197.679 107.752 200.447 109.136 200.593 110.292C196.116 110.178 192.697 110.585 189.783 111.822C188.953 112.18 187.618 112.18 187.487 113.222C187.927 113.694 188.008 114.411 188.366 114.997C189.066 116.12 190.239 117.634 191.297 118.432C192.453 119.295 193.625 120.223 194.862 120.988C197.044 122.307 199.486 123.072 201.603 124.407C202.84 125.205 204.093 126.198 205.298 127.077C205.901 127.533 206.291 128.217 207.073 128.493V128.363C206.666 127.842 206.568 127.126 206.194 126.589L204.517 124.912C202.905 122.779 200.854 120.89 198.672 119.327C196.93 118.074 193.039 116.381 192.323 114.362L192.192 114.232C193.413 114.101 194.862 113.646 196.002 113.336C197.923 112.832 199.616 112.962 201.586 112.457C202.482 112.197 203.377 111.936 204.273 111.692V111.171C203.279 110.162 202.563 108.794 201.472 107.866C198.623 105.44 195.514 103.014 192.306 100.996C190.532 99.8722 188.334 99.1396 186.462 98.1953C185.827 97.8697 184.72 97.7069 184.296 97.1696C183.303 95.916 182.766 94.3205 182.001 92.8553C180.405 89.7782 178.842 86.4244 177.426 83.1846C176.465 80.9867 175.83 78.8051 174.626 76.8189C168.846 67.3273 162.627 61.5802 152.989 55.9472C150.937 54.7424 148.479 54.2865 145.874 53.6679C144.458 53.5702 143.074 53.4888 141.657 53.4074C140.811 53.0492 139.915 52.0073 139.118 51.4863C137.115 50.2327 133.175 48.0511 129.919 48.0022ZM143.709 61.8082C142.781 61.7919 142.113 61.9221 141.413 62.0687V62.1989H141.543C141.983 63.1106 142.781 63.6967 143.334 64.4782C143.758 65.3736 144.165 66.2691 144.588 67.1645L144.718 67.0342C145.5 66.4807 145.874 65.5853 145.874 64.234C145.548 63.9084 145.5 63.4851 145.239 63.0943C144.865 62.5571 144.165 62.264 143.709 61.8082ZM7.7984 114.671C6.5448 114.72 5.17723 114.964 3.6957 115.436C1.22105 116.185 0 117.667 0 120.679V152.198H8.35194V121.444L19.9274 147.737C21.3601 151.01 23.3138 152.182 27.1397 152.182C30.982 152.182 32.8542 151.01 34.2869 147.737L45.8624 122.111V152.198H54.1981V120.679C54.1981 117.667 52.9933 116.185 50.5024 115.436C44.5763 113.564 40.5875 115.176 38.7966 119.23L26.9118 145.963L15.4177 119.23C14.1153 116.185 11.5104 114.525 7.7984 114.671ZM109.406 114.688C106.117 114.688 95.8764 115.078 95.8764 123.023V128.168C95.8764 131.815 99.0837 134.794 106.035 135.527C106.817 135.576 107.598 135.641 108.38 135.641C108.38 135.641 116.488 135.478 116.716 135.527C121.404 135.527 120.883 139.174 120.883 139.695V143.862C120.883 144.432 120.753 148.03 116.667 148.03H95.8764V152.198H116.748C119.483 152.198 122.137 151.628 124.253 150.635C127.77 149.023 129.219 146.842 129.219 143.976V138.018C129.219 131.619 121.274 131.359 116.716 131.359H108.38C105.107 131.359 104.603 129.373 104.212 127.191V123.023C104.603 121.363 105.335 119.116 108.233 118.855H129.219V114.688H109.406ZM141.641 114.688C135.487 115.534 133.322 118.595 133.322 123.023V143.862C133.322 147.916 135.585 150.358 140.241 151.628C141.804 152.068 143.22 152.247 144.555 152.247L153.835 152.198H159.289L163.929 156.366H173.307L166.86 150.554C169.888 149.3 170.832 147.379 170.832 143.781V123.023C170.832 118.595 167.951 115.534 161.796 114.688H141.641ZM175.065 114.688V143.683C175.065 148.714 177.914 151.547 185.452 152.117C186.152 152.149 186.869 152.198 187.569 152.198H208.408V148.03H189.148C184.85 148.03 183.401 146.223 183.401 143.651V114.688H175.065ZM146.607 118.855H157.336C160.168 118.855 162.073 121.135 162.497 123.023C162.497 123.023 162.562 142.43 162.562 143.862C162.562 145.295 161.764 145.946 161.764 145.946L159.501 143.862H150.058L154.698 148.03H146.607C143.709 148.03 142.081 145.881 141.657 143.862V123.446C141.657 121.232 143.351 118.855 146.607 118.855ZM58.3659 127.191C58.5287 127.354 58.3659 144.953 58.3659 145.295C58.431 148.942 63.0547 152.133 70.2996 152.198H83.3729V152.475C83.3729 153.256 83.9427 155.861 79.2051 156.366C79.1562 156.366 58.4148 156.366 58.3659 156.366V160.534H80.1005C83.7799 160.42 91.7574 159.589 91.7086 153.207C91.7086 153.093 91.7411 127.191 91.7086 127.191H83.3729V148.03C83.2427 148.03 73.051 148.063 70.9997 148.03C66.9783 147.965 66.6365 145.669 66.7016 144.79V127.191H58.3659Z" fill="url(#paint0_linear_27_141)"/>
</g>
<defs>
<linearGradient id="paint0_linear_27_141" x1="104.204" y1="48" x2="104.204" y2="160.534" gradientUnits="userSpaceOnUse">
<stop stop-color="#00FF80"/>
<stop offset="1" stop-color="#00FF80" stop-opacity="0.3"/>
</linearGradient>
<clipPath id="clip0_27_141">
<rect width="208" height="208" fill="white"/>
</clipPath>
</defs>
</svg>
