<svg width="208" height="208" viewBox="0 0 208 208" fill="none" xmlns="http://www.w3.org/2000/svg">
<path fill-rule="evenodd" clip-rule="evenodd" d="M189 55.0005V152.992L103.5 201.988L18 152.992V55.0005L103.5 6L189 55.0005ZM130.5 64.7385C130.5 58.524 135.536 53.4885 141.75 53.4885C147.965 53.4885 153 58.524 153 64.7385V141.239C153 147.453 147.965 152.489 141.75 152.489C141.691 152.489 141.606 152.491 141.496 152.494C139.876 152.54 132.937 152.737 127.746 147.584L127.251 146.945L76.5002 90.123V141.239C76.5002 147.453 71.4647 152.489 65.2502 152.489C59.0357 152.489 54.0002 147.453 54.0002 141.239V64.7385C54.0002 58.524 59.0357 53.4885 65.2502 53.4885C65.3741 53.4885 65.5032 53.4881 65.6375 53.4876C68.8532 53.4765 74.965 53.4553 80.3387 59.343L80.9282 60.027L130.5 115.481V64.7385Z" fill="url(#paint0_linear_29_163)"/>
<defs>
<linearGradient id="paint0_linear_29_163" x1="103.5" y1="6" x2="103.5" y2="201.988" gradientUnits="userSpaceOnUse">
<stop stop-color="#00FF80"/>
<stop offset="1" stop-color="#00FF80" stop-opacity="0.3"/>
</linearGradient>
</defs>
</svg>
