<svg width="208" height="208" viewBox="0 0 208 208" fill="none" xmlns="http://www.w3.org/2000/svg">
<path d="M104.385 48C46.4159 48 1 72.601 1 104C1 135.399 46.4159 160 104.385 160C162.353 160 207.769 135.399 207.769 104C207.769 72.601 162.353 48 104.385 48ZM93.649 65.2308H104.94L101.356 82.4615H111.435C117.829 82.4615 122.12 83.3534 124.56 85.5913C126.95 87.7957 127.673 91.4135 126.714 96.3438L122.238 116.923H110.762L114.885 97.8918C115.389 95.2837 115.187 93.4664 114.312 92.5072C113.437 91.5481 111.519 91.0769 108.642 91.0769H99.6058L94.1538 116.923H82.8461L93.649 65.2308ZM44.0769 82.4615H67.0457C78 82.4615 84.6298 89.7981 82.0385 100.752C79.0264 113.474 70.9495 116.923 56.1082 116.923H49.0072L46.7524 129.846H35.3437L44.0769 82.4615ZM134.538 82.4615H157.507C168.462 82.4615 175.091 89.7981 172.5 100.752C169.488 113.474 161.411 116.923 146.57 116.923H139.469L137.214 129.846H125.805L134.538 82.4615ZM53.8534 91.0769L50.6058 108.308H57.976C64.3534 108.308 70.2764 107.584 71.2692 98.0769C71.6394 94.3918 70.1082 91.0769 62.738 91.0769H53.8534ZM144.315 91.0769L141.067 108.308H148.437C154.815 108.308 160.738 107.584 161.731 98.0769C162.101 94.3918 160.57 91.0769 153.2 91.0769H144.315Z" fill="url(#paint0_linear_27_147)"/>
<defs>
<linearGradient id="paint0_linear_27_147" x1="104.385" y1="48" x2="104.385" y2="160" gradientUnits="userSpaceOnUse">
<stop stop-color="#00FF80"/>
<stop offset="1" stop-color="#00FF80" stop-opacity="0.3"/>
</linearGradient>
</defs>
</svg>
