<svg width="208" height="208" viewBox="0 0 208 208" fill="none" xmlns="http://www.w3.org/2000/svg">
<path d="M139.648 21.2C132.308 21.2 125.952 23.1828 121.55 25.1375C117.233 23.6891 110.075 21.2141 101.483 23C96.4766 23.8719 91.8781 25.9391 87.6594 29.1031C80.7125 25.7562 73.4562 23.7031 65.8484 23.3656C61.1656 23 42.0828 25.1656 35.2344 35.2344C32.7172 39.2 30.2 44.2344 29.1172 50.3516C28.0344 55.7516 28.0344 61.8828 29.8344 74.4828C30.9172 83.1172 32.3656 88.8828 35.6 100.752C35.9656 101.834 37.7656 107.6 43.1656 123.448C44.2344 126.317 46.4 131.717 50.7172 136.752C53.6 140.352 56.4828 142.517 60.0828 142.517C64.7656 142.517 68 139.283 70.8828 135.683C71.0938 135.444 71.3187 135.177 71.5297 134.938C71.2625 135.359 71.0234 135.823 70.8828 136.4C70.1656 140 74.4828 142.883 78.0828 144.317C80.9656 145.752 84.2 146.117 86.7172 146.117C89.9516 146.117 92.4828 145.4 93.9172 145.048C95.1547 144.627 97.8266 143.473 100.681 141.575C100.808 150.772 100.892 161.628 101.117 164.117C102.2 173.483 104.717 179.952 109.4 183.552C113 186.434 119.483 186.8 119.848 186.8C126.317 186.8 136.4 182.483 140.717 175.648C142.883 172.4 143.6 169.517 144.317 165.552C145.034 163.4 145.752 150.8 146.117 148.283C146.609 144.303 146.989 140.38 147.369 136.569C149.745 137.188 152.67 137.848 155.848 137.848C161.6 137.848 169.166 133.883 170.6 133.152C173.483 131 179.234 125.966 176.717 121.648C175.283 119.117 173.117 119.117 167.717 119.848C167.717 119.848 159.083 120.917 158.352 120.552C157.831 120.355 157.03 119.848 156.13 119.188C158 116.291 159.659 113.422 161.6 110.848C165.917 102.566 168.448 96.0828 170.248 91.0484C173.483 82.0484 175.283 74.8344 176.352 69.8C178.883 59 179.6 53.9656 178.152 48.2C175.283 38.1172 164.834 29.4828 160.517 26.9656C157.634 25.5172 150.448 21.2 139.648 21.2ZM139.648 28.4C148.648 28.4 154.766 32 158 33.4344C161.966 35.6 170.966 42.8 171.683 49.6344C172.048 53.6 172.4 57.5656 169.883 68C168.448 73.0344 167 79.5172 163.752 88.5172C161.952 93.5516 159.8 99.6828 155.483 107.248C155.37 107.431 155.244 107.628 155.131 107.825C155.553 106.306 155.848 105.083 155.848 105.083C156.566 101.483 156.566 98.6 156.2 94.2828C155.834 92.1172 155.483 86.7172 155.483 84.5516C155.483 83.4828 156.552 72.3172 156.917 68.3516C157.283 61.8828 153.317 53.9516 152.248 52.5172C146.848 44.2344 143.966 39.5656 138.2 34.8828C136.766 33.6594 134.305 31.6203 130.958 29.5672C133.602 28.9203 136.527 28.4 139.648 28.4ZM107.839 29.8766C112.536 29.9891 116.516 31.2828 119.483 32.3656C127.048 34.8828 131.717 38.8344 133.883 40.6344C138.566 44.6 141.083 48.5656 146.483 56.8484C146.877 57.6359 147.903 59.3094 148.719 61.6437C141.35 60.9687 136.456 63.5562 133.517 66.2C129.2 69.8 129.552 75.2 129.917 79.1516C129.917 82.0344 130.648 85.6484 136.048 97.8828C138.2 103.283 140.352 109.034 142.517 113C143.642 115.236 145.02 117.289 146.497 119.117C145.639 119.553 144.767 120.116 143.952 120.917C141.8 123.434 141.434 125.966 140.717 130.648C140 134.248 139.283 141.8 138.917 147.917C138.917 150.434 137.848 162.683 137.483 164.483C136.4 168.083 136.034 169.883 134.6 172.048C132.083 176 124.166 179.248 119.483 178.883C118.048 178.883 115.883 178.883 114.083 177.448C110.117 174.566 108.683 168.083 108.317 163.048C107.952 159.448 108.317 133.517 107.6 127.752C107.234 126.317 106.883 122.717 104 120.2C102.791 119.188 100.287 118.667 97.925 118.316C97.9531 117.106 98.0234 115.897 98.2484 114.8C98.6 112.634 99.3172 111.552 100.048 109.752C100.4 108.683 101.117 107.248 101.848 105.448C105.083 95.3656 104.352 82.0344 102.552 73.7516C102.2 73.0344 100.752 67.2828 95.7172 64.0484C90.3172 60.8 84.5516 62.6 81.3172 63.6828C79.9812 64.0484 78.6594 64.625 77.3375 65.3C77.5625 63.7953 77.7594 62.2766 78.0828 60.8C79.5172 53.6 80.9656 47.4828 85.6484 41.3656C90.6828 35.2344 96.4344 31.2828 102.917 30.2C104.633 29.9328 106.278 29.8344 107.839 29.8766ZM63.3875 30.5094C64.2312 30.4953 64.9484 30.5094 65.4828 30.5656C71.1078 30.8609 76.4938 32.1828 81.8375 34.4328C81.1766 35.1641 80.5156 35.8953 79.8828 36.6828C73.7656 43.8828 72.3172 51.4344 70.8828 59C69.0828 68 68.7172 77.3516 70.1516 86.7172L69.4484 93.5516C69.0828 97.1516 68.3516 104 72.3172 111.2C73.7094 113.591 75.2422 115.616 76.9297 117.345C73.2734 122.183 69.3922 126.753 65.4828 131C63.3172 133.517 61.5172 135.317 60.0828 135.317C59.7172 135.317 58.2828 134.6 56.1172 132.083C52.1516 127.766 50.7172 123.083 50 121.283C45.6828 108.317 43.1656 100.034 42.8 98.9516C39.9172 87.4344 38.4828 81.6828 37.0344 73.4C35.2344 61.8828 35.2344 56.1172 36.3172 51.4484C37.4 46.4 39.2 42.4344 41 39.5656C45.4156 32.6328 57.5375 30.6641 63.3875 30.5094ZM145.991 68.45C147.144 68.45 148.395 68.5906 149.717 68.8719C149.675 72.2328 148.283 82.7797 148.283 84.2C148.283 87.0828 149 92.8344 149 95C149.366 98.9656 149.366 101.117 149 104C149 104 148.466 106.573 147.917 108.402C146.244 104.619 144.388 100.105 142.152 95C136.752 82.7656 136.4 80.2484 136.4 78.4484C136.4 75.9172 136.4 72.6828 138.552 71.2484C140.577 69.4484 143.038 68.4781 145.991 68.45ZM90.1062 69.5047C90.8234 69.5891 91.4844 69.8 92.1172 70.1516C95 71.6 95.7172 75.2 95.7172 75.2C97.5172 83.1172 98.2344 95 95.3516 102.917C95 104.352 94.2828 105.434 93.9172 106.517C93.2 108.317 92.4828 110.117 91.7516 113.352C91.5687 114.688 91.4844 116.009 91.4422 117.331C88.9531 116.811 86.6047 115.925 84.9172 114.8C82.0344 113.366 79.8828 110.834 78.4484 107.952C75.9172 102.552 76.2828 97.5172 76.6484 94.6484L77.3516 86.3516C76.8453 82.3016 76.6063 78.2375 76.6625 74.2016C78.3219 72.7812 80.4875 71.3328 83.4828 70.5172C85.6484 69.9828 88.0109 69.2375 90.1062 69.5047ZM143.192 71.9234C142.25 71.9656 141.252 72.1344 140.717 72.3172C139.283 72.6828 138.917 72.6828 138.552 73.4C138.2 74.1172 139.283 75.2 139.648 75.9172C140 75.9172 141.083 77 142.517 76.6484C143.6 76.2828 144.317 75.5656 144.683 75.2C145.048 74.8344 146.483 73.0344 145.4 72.3172C145.034 71.9516 144.134 71.8672 143.192 71.9234ZM89.2906 74.5391C88.8969 74.5672 88.5172 74.6656 88.1516 74.8484C87.8 74.8484 87.0828 75.2 86.7172 75.9172C86.3516 76.6344 86.7172 77.3516 87.0828 77.7172C87.8 78.8 88.8828 79.8828 90.6828 79.8828C91.0484 79.8828 92.4828 79.8828 93.5516 78.8C93.5516 78.8 94.6484 77.7172 94.6484 76.6484C94.2828 75.9172 93.5656 75.5656 92.4828 75.2C91.6672 74.9328 90.4578 74.4547 89.2906 74.5391ZM82.6672 121.648C84.875 122.83 87.5328 123.786 90.4437 124.447C89.6703 125.994 88.5594 127.273 87.4484 128.117C84.9172 129.917 81.6828 131 78.4484 131.717C77.7172 131.717 77.3656 132.083 76.6484 132.083C74.9047 132.575 73.2172 133.123 72.0641 134.319C75.5938 130.395 79.1375 126.064 82.6672 121.648ZM152.08 124.531C153.655 125.713 155.202 126.584 156.552 127.048C158.717 127.766 160.517 127.766 167 127.048C165.917 128.117 162.683 129.917 158 130.648C154.991 130.944 151.25 130.227 148.213 129.355C148.494 127.316 148.817 126.148 149.352 125.6C149.548 125.417 150.744 125.052 152.08 124.531ZM97.8687 125.614C98.6141 125.741 99.2047 125.839 99.3172 125.952C100.034 126.683 100.4 128.483 100.4 129.2C100.442 129.819 100.47 131.38 100.498 132.463C97.5312 135.936 92.7641 137.863 91.7516 138.2C90.3172 138.917 86 139.634 81.6828 138.2C85.2828 137.117 88.8828 136.048 91.7516 133.883C94.2687 132.083 96.4344 129.214 97.8687 125.614Z" fill="url(#paint0_linear_26_131)"/>
<defs>
<linearGradient id="paint0_linear_26_131" x1="103.635" y1="21.2" x2="103.635" y2="186.8" gradientUnits="userSpaceOnUse">
<stop stop-color="#00FF80"/>
<stop offset="1" stop-color="#00FF80" stop-opacity="0.3"/>
</linearGradient>
</defs>
</svg>
