<svg width="208" height="208" viewBox="0 0 208 208" fill="none" xmlns="http://www.w3.org/2000/svg">
<path d="M102 12C67.2031 12 60 29.9688 60 40.375V60H100V64H40.375C27.1719 64 12 74.4063 12 104C12 133.594 27.1719 144 40.375 144H64V120C64 111.203 71.2031 104 80 104H128C134.797 104 140 98.7969 140 92V40.375C140 26.375 126.797 12 102 12ZM84 32C88.4063 32 92 35.5938 92 40C92 44.4063 88.4063 48 84 48C79.5938 48 76 44.4063 76 40C76 35.5938 79.5938 32 84 32ZM144 64V92C144 100.797 136.797 108 128 108H80C73.2031 108 68 113.203 68 120V167.625C68 181.625 81.2031 196 106 196C140.797 196 148 178.031 148 167.625V148H108V144H167.625C180.828 144 196 133.594 196 104C196 74.4063 180.828 64 167.625 64H144ZM124 160C128.406 160 132 163.594 132 168C132 172.406 128.406 176 124 176C119.594 176 116 172.406 116 168C116 163.594 119.594 160 124 160Z" fill="url(#paint0_linear_28_152)"/>
<defs>
<linearGradient id="paint0_linear_28_152" x1="104" y1="12" x2="104" y2="196" gradientUnits="userSpaceOnUse">
<stop stop-color="#00FF80"/>
<stop offset="1" stop-color="#00FF80" stop-opacity="0.3"/>
</linearGradient>
</defs>
</svg>
