<svg width="449" height="449" viewBox="0 0 449 449" fill="none" xmlns="http://www.w3.org/2000/svg">
<path fill-rule="evenodd" clip-rule="evenodd" d="M250.459 308.091C237.999 331.086 222.712 346.022 206.632 351.933C204.256 352.079 201.851 352.191 199.419 352.265V274.818C220.638 275.467 239.875 278.926 255.244 284.208V298.544C253.714 301.846 252.117 305.031 250.459 308.091ZM255.244 316.099C247.047 330.226 237.483 341.686 226.958 349.729C236.249 348.264 244.862 346.236 252.579 343.76C253.471 343.416 254.36 343.065 255.244 342.706V316.099ZM255.244 351.406C237.812 358.094 219.03 362.058 199.419 362.775V362.894H193.051L192.947 362.894L192.843 362.894H191.329V362.892C191.194 362.893 191.059 362.894 190.924 362.894C190.124 362.894 189.327 362.875 188.532 362.839C170.722 362.395 153.577 359.275 137.484 353.865C118.143 348.792 102.757 341.11 93.8476 331.923C49.0271 300.799 19.5411 249.14 19.0074 190.565H19V188.947V182.474H19.1182C21.2623 123.859 52.4091 72.6467 98.634 42.7626C105.338 36.978 115.112 31.9054 127.095 27.8973C146.121 20.1097 166.833 15.5955 188.532 15.0549C189.327 15.0184 190.124 15 190.924 15C191.161 15 191.398 15.0016 191.635 15.0048C192.072 15.0016 192.509 15 192.947 15C215.019 15 236.13 19.1108 255.558 26.6086C270.738 31.1998 282.78 37.4287 290.129 44.6577C316.398 62.3856 337.565 87.0983 350.966 116.132H408.965C420.582 116.132 430 125.55 430 137.167V413.864C430 425.482 420.582 434.9 408.965 434.9H276.28C264.662 434.9 255.244 425.482 255.244 413.864V351.406ZM354.453 124.222H408.965C416.114 124.222 421.909 130.018 421.909 137.167V413.864C421.909 421.013 416.114 426.809 408.965 426.809H276.28C269.13 426.809 263.335 421.013 263.335 413.864V348.518C270.204 345.817 276.272 342.73 281.364 339.336C282.37 339.911 283.534 340.24 284.775 340.24H400.469C404.268 340.24 407.346 337.161 407.346 333.363C407.346 329.565 404.268 326.486 400.469 326.486H299.452C322.797 308.382 341.409 284.465 353.117 256.907H400.469C404.268 256.907 407.346 253.829 407.346 250.03C407.346 246.232 404.268 243.154 400.469 243.154H358.281C362.747 229.525 365.574 215.154 366.531 200.274H400.469C404.268 200.274 407.346 197.195 407.346 193.397C407.346 189.599 404.268 186.52 400.469 186.52H366.894V182.474H366.775C366.636 178.666 366.374 174.889 365.994 171.148H400.469C404.268 171.148 407.346 168.069 407.346 164.271C407.346 160.473 404.268 157.394 400.469 157.394H364.039C361.933 145.902 358.698 134.805 354.453 124.222ZM284.982 200.274C284.442 215.79 282.799 230.753 280.197 244.898C281.413 243.813 283.017 243.154 284.775 243.154H349.743C354.437 229.574 357.416 215.194 358.422 200.274H284.982ZM345.699 124.222C350.172 134.766 353.585 145.867 355.805 157.394H284.775C284.389 157.394 284.01 157.426 283.642 157.487C282.501 145.962 280.745 134.834 278.438 124.222H345.699ZM284.775 171.148C284.747 171.148 284.719 171.147 284.692 171.147C284.898 174.889 285.04 178.666 285.115 182.474H358.679C358.533 178.664 358.258 174.887 357.859 171.148H284.775ZM278.579 253.019C276.417 263.087 273.759 272.694 270.663 281.737C288.213 290.099 298.933 301.27 298.933 313.541C298.933 314.612 298.851 315.675 298.691 316.728C318.115 300.636 333.81 280.199 344.285 256.907H284.775C282.047 256.907 279.691 255.32 278.579 253.019ZM278.238 331.222C279.103 328.579 281.525 326.642 284.42 326.495C284.518 326.395 284.616 326.296 284.712 326.196C289.117 321.619 290.842 317.356 290.842 313.541C290.842 309.727 289.117 305.463 284.712 300.887C280.859 296.884 275.221 292.949 267.89 289.382C266.449 293.136 264.929 296.781 263.335 300.308V339.17C268.45 336.769 273.423 334.114 278.238 331.222ZM342.006 116.132C331.482 94.6275 316.441 75.7363 298.119 60.6942C298.122 60.8347 298.124 60.9753 298.124 61.1161C298.124 72.6746 286.95 83.1649 268.782 90.8763C271.734 98.8437 274.337 107.287 276.549 116.132H342.006ZM268.573 117.589C266.466 109.239 264.005 101.281 261.23 93.7813C244.384 99.6506 222.94 103.376 199.419 103.925V182.474H255.244V137.167C255.244 128.27 260.768 120.663 268.573 117.589ZM263.335 182.474V137.167C263.335 132.112 266.233 127.733 270.458 125.602C274.308 143.201 276.614 162.353 277.023 182.474H263.335ZM255.244 190.565H199.419V266.724C220.225 267.339 239.397 270.573 255.244 275.681V190.565ZM263.335 278.156V190.565H277.084C276.921 222.898 271.859 252.882 263.335 278.156ZM85.4096 315.221C50.1033 285.124 27.5754 240.481 27.0983 190.565H96.6733C96.8408 224.499 102.274 256.112 111.537 282.755C95.2211 290.996 85.3425 301.762 85.3425 313.541C85.3425 314.104 85.365 314.663 85.4096 315.221ZM118.929 279.376C110.154 253.849 104.93 223.42 104.764 190.565H191.329V266.617C163.313 266.709 137.864 271.54 118.929 279.376ZM104.825 182.474H191.329V103.988C164.17 103.778 139.54 99.338 121.207 92.211C111.526 117.746 105.511 148.748 104.825 182.474ZM27.2145 182.474H96.7333C97.4214 147.757 103.623 115.637 113.769 89.0075C98.0654 81.5093 88.5787 71.7662 88.5787 61.1161C88.5787 60.7465 88.5901 60.378 88.6128 60.0106C52.6443 89.1522 29.1115 133.04 27.2145 182.474ZM199.419 95.8326C222.063 95.2864 242.464 91.7078 258.272 86.244C255.856 80.436 253.245 74.9434 250.459 69.8023C238.553 47.8301 224.066 33.2163 208.773 26.8031C205.703 26.6116 202.583 26.476 199.419 26.3997V95.8326ZM191.329 95.8974C164.984 95.6869 141.423 91.3735 124.225 84.7039C126.457 79.4631 128.851 74.4868 131.389 69.8023C143.031 48.3182 157.14 33.8692 172.058 27.2427C178.268 26.6996 184.71 26.3878 191.329 26.3349V95.8974ZM191.329 274.708V352.375C185.641 352.355 180.079 352.135 174.674 351.73C158.793 345.685 143.709 330.828 131.389 308.091C127.868 301.593 124.625 294.533 121.705 286.984C139.483 279.562 163.967 274.8 191.329 274.708ZM99.1332 325.74C111.58 334.293 125.251 341.19 139.831 346.116C144.394 347.303 149.204 348.343 154.227 349.217C138.178 336.686 124.401 316.185 114.353 290.402C108.005 293.693 103.053 297.262 99.5638 300.887C95.1584 305.463 93.433 309.727 93.433 313.541C93.433 317.229 95.0456 321.336 99.1332 325.74ZM284.96 50.9332C288.718 54.8035 290.033 58.2383 290.033 61.1161C290.033 64.1647 288.558 67.8384 284.264 71.9927C280.186 75.9395 274.006 79.8483 265.827 83.3411C255.973 59.5735 242.872 40.633 227.748 28.7755C236.87 30.1234 245.326 31.9859 252.9 34.2577C264.244 38.6573 274.983 44.2687 284.96 50.9332ZM116.801 81.488C126.286 59.2353 138.65 41.3588 152.857 29.7701C144.516 31.262 136.817 33.1939 129.942 35.4763C120.681 39.2823 111.841 43.9023 103.509 49.2472C103.137 49.5776 102.78 49.9084 102.438 50.2396C98.1449 54.3939 96.6693 58.0675 96.6693 61.1161C96.6693 64.1647 98.1449 67.8384 102.438 71.9927C105.81 75.2549 110.616 78.4911 116.801 81.488ZM387.525 400.919C395.791 400.919 402.492 394.218 402.492 385.952C402.492 377.685 395.791 370.984 387.525 370.984C379.258 370.984 372.557 377.685 372.557 385.952C372.557 394.218 379.258 400.919 387.525 400.919ZM387.525 409.01C400.259 409.01 410.583 398.686 410.583 385.952C410.583 373.217 400.259 362.894 387.525 362.894C374.79 362.894 364.467 373.217 364.467 385.952C364.467 398.686 374.79 409.01 387.525 409.01ZM312.687 385.952C312.687 394.218 305.986 400.919 297.719 400.919C289.453 400.919 282.752 394.218 282.752 385.952C282.752 377.685 289.453 370.984 297.719 370.984C305.986 370.984 312.687 377.685 312.687 385.952ZM320.778 385.952C320.778 398.686 310.454 409.01 297.719 409.01C284.985 409.01 274.661 398.686 274.661 385.952C274.661 373.217 284.985 362.894 297.719 362.894C310.454 362.894 320.778 373.217 320.778 385.952Z" fill="url(#paint0_linear_22_95)"/>
<defs>
<linearGradient id="paint0_linear_22_95" x1="277.898" y1="193.397" x2="407.346" y2="193.397" gradientUnits="userSpaceOnUse">
<stop stop-color="#00FF80"/>
<stop offset="1" stop-color="#00FF80" stop-opacity="0.3"/>
</linearGradient>
</defs>
</svg>
